<svg id="Layer_1" data-name="Layer 1" xmlns="http://www.w3.org/2000/svg" viewBox="0 0 1363.267 766.4634"><defs><style>.cls-1{fill:#fff;}</style></defs><title>ibm-notext</title><path class="cls-1" d="M642.38,221.464c121.5588-.3168,223.3887,97.8788,223.5639,223.28A223.204,223.204,0,0,1,642.2231,668.6967c-125.2171-.0628-221.094-100.6337-223.6294-218.4606C415.87,323.6554,518.1373,221.2356,642.38,221.464ZM708.0547,563.46c.3148.7337.6367,1.4011.8926,2.0928a90.9257,90.9257,0,0,0,39.3817,47.2392c2.8873,1.7307,2.9163,1.6785,4.6134-1.2192q7.8469-13.398,15.6943-26.7955c1.9626-3.3547,3.9057-6.7208,6.0267-10.3729-10.9078-5.8123-19.4263-13.569-22.4674-25.852-2.9421-11.883-1.81-23.3038,4.8929-33.7861,5.42-8.4761,12.7885-14.712,22.5444-17.5767q19.1631-5.627,35.9756,5.846c.5292-.8165.9936-1.4741,1.3988-2.1664q11.9449-20.41,23.8781-40.8271c1.5156-2.5916,1.55-2.6448-1.0482-4.1721-17.3755-10.2121-36.1169-13.9749-56.0952-11.7469-3.2293.36-3.3492.373-3.3112-2.9759a127.2609,127.2609,0,0,0-3.6061-32.5853c-9.2627-36.8655-29.636-65.8789-61.61-86.6169-.4431-.2874-.8318-.6587-1.3194-1.05.3847-.617.7387-1.1164,1.0239-1.6524,3.3088-6.2188,7.03-12.2606,9.8146-18.7065,4.8275-11.1744,6.0806-23.1125,6.1665-35.1943.01-1.3552-.7982-1.359-1.75-1.3581q-7.4067.007-14.8134-.0059c-9.807-.0049-19.6142.02-29.4209-.0421-1.6458-.01-2.4545.4255-2.2762,2.1883a19.2638,19.2638,0,0,1-.0261,2.672c-.6352,16.2723-8.3645,28.53-22.6207,35.6854-29.2711,14.6922-60.4949-8.5894-59.817-37.81.0635-2.7378.0414-2.75-2.665-2.7531q-19.8542-.0215-39.7082-.031c-2.2631-.0015-4.5268.0333-6.7892-.0088-1.2874-.0239-1.897.4769-1.8668,1.8086.0762,3.3586-.1175,6.7387.189,10.0741a89.44,89.44,0,0,0,15.7774,43.5946,17.0085,17.0085,0,0,1,.8421,1.4914,2.6935,2.6935,0,0,1-.3587.4588c-.4455.3187-.8965.631-1.3583.9256-29.4569,18.7923-48.8737,45.1687-59.0829,78.437a138.2273,138.2273,0,0,0-5.6838,41.1858c.0064,2.4178-.2113,2.5182-2.6207,2.255-2.7216-.2972-5.4565-.6249-8.1884-.6512a86.57,86.57,0,0,0-43.9218,11.1664c-1.17.6561-2.3534,1.2872-3.6682,2.0051,8.2933,14.2987,16.4636,28.3851,24.7054,42.5949a44.1587,44.1587,0,0,1,20.3344-6.6406,40.4544,40.4544,0,0,1,36.8609,17.5076c6.15,8.6961,8.0821,18.4192,6.9856,28.8928-1.577,15.0626-10.1392,25.1558-23.18,32.0179l24.7238,42.6324c20.4-11.2191,34.3707-27.5431,41.835-49.261C618.5137,587.2,663.2086,586.95,708.0547,563.46Zm-220.9431,5.4278c18.021.8538,34.289-15.1442,34.1-33.7185a33.5587,33.5587,0,0,0-33.8938-33.6966c-19.1875-.0083-33.795,14.5475-34.0938,33.491C452.9229,554.0515,469.6276,569.692,487.1116,568.8874Zm338.575-30.3121c.924-16.8814-13.6823-34.2013-33.8414-34.2076-18.3106-.0057-33.2528,15.3156-33.548,33.8106-.2921,18.3009,15.0339,33.863,33.5683,33.8251C812.1265,571.962,826.4627,555.2535,825.6866,538.5753Zm-150.49-273.1262a33.8587,33.8587,0,0,0-33.2546-34.2086c-18.4017-.42-34.4545,15.2652-34.3542,33.5919a33.8059,33.8059,0,0,0,67.6088.6167Z"/><path class="cls-1" d="M534.043,604.7988c-.5129-.7788-.9506-1.3762-1.3193-2.0135-5.2866-9.1373-10.5285-18.3008-15.8793-27.4-.8583-1.4595-.6493-2.1721.6606-3.1429,10.2619-7.6051,16.676-17.59,18.6824-30.323,4.7251-29.9862-16.2121-52.5239-40.03-55.6009a47.0532,47.0532,0,0,0-26.1231,3.6161c-1.2091.5536-2.0172.7-2.8207-.7095-5.3983-9.47-10.8791-18.8926-16.3238-28.336a15.6518,15.6518,0,0,1-.6549-1.5321c1.1314-.5906,2.1823-1.1961,3.2788-1.7026a80.619,80.619,0,0,1,30.7308-7.5074,87.3229,87.3229,0,0,1,19.3977,1.5677c1.8839.3429,2.3961-.2084,2.43-2.0512.1311-7.19.1431-14.3968.6632-21.5635a125.3877,125.3877,0,0,1,12.5581-45.6962c12.1259-25.1229,30.1045-44.7992,54.56-58.4176.5827-.3245,1.1382-.6979,1.8772-1.1539-1.04-1.4583-1.9584-2.804-2.9348-4.1061a82.4325,82.4325,0,0,1-16.8236-46.0418c-.0774-1.4587.2668-1.9608,1.7328-1.9631,11.38-.0177,22.76-.0922,34.14-.1306,1.0838-.0036,2.1727-.11,2.2846,1.5866.7614,11.5479,5.751,21.0785,13.7586,29.2934,17.4383,17.89,46.2412,18.1,63.3082,3.679,10.0464-8.4889,16.4519-18.9893,17.89-32.2316.1946-1.7922.926-2.4034,2.7363-2.39,9.8066.07,19.6141.0244,29.4212.03,3.0319.0017,3.0376.1547,2.8069,3.1781A82.5145,82.5145,0,0,1,706.0139,319.74c-.7165.903-1.33,1.8875-2.0191,2.8735,49.52,29.0768,71.7394,72.7449,69.9978,129.6394,20.52-4.4532,40.34-2.3987,59.3032,7.5789-.3687.753-.5994,1.3116-.9017,1.8284q-8.7733,15-17.5682,29.9883c-1.7671,3.0053-1.241,2.6127-4.185,1.3827-24.7-10.32-53.4347,1.4115-63.1365,26.19-7.0945,18.12-3.866,42.5853,16.2775,56.3483,1.5289,1.0447,1.6785,1.8591.73,3.4419-4.79,7.9975-9.4576,16.0685-14.175,24.11-.4054.6911-.8618,1.3523-1.4187,2.2213-19.271-12.2617-31.1807-29.479-36.725-51.8749-21.8985,13.6994-45.5,21-71.1348,21.2142-25.5791.2134-49.2511-6.5768-71.5709-20.1421C563.6193,575.6761,552.3789,592.6554,534.043,604.7988Zm107.554-66.05c51.6524,1.17,97.7462-42.1681,98.1526-96.9886.4061-54.7784-45.4337-98.8961-97.8387-98.9434-55.2-.05-96.9495,45.7877-98.2076,95.327C542.2756,494.3646,588.1938,539.87,641.597,538.7493Z"/><path class="cls-1" d="M487.1088,562.3874a27.325,27.325,0,0,1-27.3139-27.5237,27.7353,27.7353,0,0,1,27.4133-27.3814c14.9914-.0223,27.4956,12.6353,27.4684,27.7882C514.6488,550.7911,500.81,563.0685,487.1088,562.3874Z"/><path class="cls-1" d="M792.1439,511.0232c16.1056.37,27.556,12.5621,27.1261,28.8841-.38,14.4131-13.1932,26.3454-27.8016,26.0406a27.3357,27.3357,0,0,1-26.6392-27.8488C765.0517,522.7446,777.3741,510.6843,792.1439,511.0232Z"/><path class="cls-1" d="M669.0128,265.3029a27.3891,27.3891,0,1,1-54.7781.0823c-.068-15.4917,11.9278-27.4267,27.5559-27.4163A27.0211,27.0211,0,0,1,669.0128,265.3029Z"/><path class="cls-1" d="M549.922,440.8673c-.7528-48.9043,41.0414-91.2453,91.3449-91.4718,49.4154-.2225,91.876,41.2776,91.92,91.4655.0449,51.3652-43.1889,92.3873-93.1536,91.548C591.3637,531.5914,549.1685,491.12,549.922,440.8673Z"/></svg>