<svg id="Layer_1" data-name="Layer 1" xmlns="http://www.w3.org/2000/svg" viewBox="0 0 677.7163 265.7188"><defs><style>.cls-1{fill:#fff;}</style></defs><title>ibm</title><path class="cls-1" d="M923.2982,276.6579c1.613-1.9106,3.0247-3.81,4.6639-5.4874,10.2611-10.5,22.5094-17.5031,37.117-19.4959a47.4806,47.4806,0,0,1,37.7974,10.6576c9.2956,7.611,15.6877,17.1451,18.206,28.9837a58.0449,58.0449,0,0,1,1.33,11.8753q.134,70.677.0572,141.3544c0,1.6666-.0035,1.67-1.7362,1.67q-18.2394.0014-36.4786,0c-1.88,0-1.8844-.002-1.8844-1.93q-.0014-68.2173-.0014-136.4347c0-8.65-6.3432-17.6019-14.4947-20.4671-6.5763-2.3114-14.3546-.1033-19.3378,5.3522a21.4607,21.4607,0,0,0-5.7559,15.0656q.0259,68.097.0094,136.1939c0,.4-.03.8023.0034,1.2.067.8029-.3241,1.0622-1.0708,1.0251-.6783-.0336-1.36-.0044-2.04-.0044q-17.5194,0-35.0387,0c-1.95,0-1.9542-.0015-1.9542-1.98q-.0012-68.0973.0087-136.1947c.0036-8.1674-3.5831-14.3933-10.2143-18.8737a15.3253,15.3253,0,0,0-18.2716.58c-6.2877,4.7783-9.7037,10.9967-9.6925,19.106q.0933,67.5573.03,135.1147c0,.44-.0223.881.0006,1.32.0347.663-.2589.9631-.92.9251-.2392-.0137-.48.0032-.72.0032q-18.5392,0-37.0785,0c-1.6643,0-1.6714-.0045-1.6715-1.6447-.0012-47.1981-.2585-94.3983.115-141.5935.17-21.5321,10.465-37.52,29.7846-47.2871,8.0061-4.0474,16.7254-5.1742,25.5966-4.2274,17.7738,1.8971,31.9171,10.3594,42.9,24.3181C922.7754,276.0579,923.0123,276.32,923.2982,276.6579Z" transform="translate(-344.7592 -251.1478)"/><path class="cls-1" d="M475.2987,256.048a130.4093,130.4093,0,1,1-.0916,260.8186C402.1826,516.83,346.2688,458.1787,344.79,389.464,343.2017,315.6443,402.8424,255.9148,475.2987,256.048Zm38.3,199.4461c.1836.4279.3713.8171.52,1.2205a53.0266,53.0266,0,0,0,22.9668,27.5491c1.6838,1.0093,1.7007.9788,2.69-.711q4.5762-7.8135,9.1527-15.6267c1.1446-1.9564,2.2777-3.9195,3.5147-6.0493-6.3613-3.39-11.3291-7.9132-13.1027-15.0764-1.7157-6.93-1.0553-13.5905,2.8535-19.7035a23.1768,23.1768,0,0,1,13.1475-10.25,23.7367,23.7367,0,0,1,20.98,3.4093c.3087-.4761.5795-.86.8158-1.2634q6.9661-11.9028,13.9253-23.81c.8839-1.5113.9042-1.5424-.6112-2.4331a51.63,51.63,0,0,0-32.7138-6.8506c-1.8833.21-1.9532.2176-1.9311-1.7355a74.2165,74.2165,0,0,0-2.103-19.0032c-5.4019-21.4993-17.2832-38.4194-35.93-50.5135-.2584-.1676-.4851-.3841-.7694-.6122.2243-.36.4307-.6511.5971-.9637,1.93-3.6267,4.1-7.15,5.7237-10.9093,2.8153-6.5167,3.5461-13.4788,3.5962-20.5247.0056-.79-.4655-.7926-1.02-.792q-4.3194.0041-8.6389-.0035c-5.7193-.0028-11.4387.0119-17.1578-.0245-.96-.0061-1.4314.2481-1.3274,1.2762a11.2331,11.2331,0,0,1-.0153,1.5582c-.37,9.49-4.878,16.6381-13.1919,20.8111-17.07,8.5683-35.28-5.0092-34.8843-22.05.037-1.5966.0241-1.6039-1.5542-1.6056q-11.5787-.0125-23.1571-.018c-1.32-.0009-2.64.0194-3.9594-.0051-.7508-.014-1.1063.2781-1.0887,1.0547.0445,1.9587-.0685,3.93.11,5.8751a52.16,52.16,0,0,0,9.2012,25.4236,9.96,9.96,0,0,1,.4911.87,1.5727,1.5727,0,0,1-.2092.2676c-.26.1859-.5229.368-.7922.54-17.1787,10.9593-28.5023,26.3416-34.4562,45.7431a80.6129,80.6129,0,0,0-3.3146,24.0189c.0037,1.41-.1233,1.4686-1.5284,1.3151-1.5872-.1734-3.1821-.3645-4.7753-.38a50.4869,50.4869,0,0,0-25.6145,6.5121c-.6821.3826-1.3724.7507-2.1392,1.1693l14.4077,24.8407a25.7517,25.7517,0,0,1,11.8587-3.8727,23.9525,23.9525,0,0,1,25.5706,27.06c-.92,8.7843-5.913,14.67-13.5185,18.6723l14.4185,24.8625a50.57,50.57,0,0,0,24.3975-28.7282C461.38,469.339,487.4455,469.1932,513.599,455.4941Zm-128.85,3.1654c10.51.4979,19.9968-8.8319,19.8865-19.664a19.8261,19.8261,0,0,0-39.6492-.12C364.81,450.0075,374.5523,459.1287,384.7487,458.66ZM582.2,440.982c.5389-9.8449-7.9793-19.9456-19.7357-19.9493-10.6785-.0033-19.3925,8.9318-19.5646,19.7178a19.6714,19.6714,0,0,0,19.5764,19.7262C574.2919,460.4526,582.6525,450.7084,582.2,440.982ZM494.4365,281.6994a19.7457,19.7457,0,0,0-19.3934-19.95c-10.7316-.2448-20.0933,8.9024-20.0348,19.59a19.715,19.715,0,0,0,39.4282.36Z" transform="translate(-344.7592 -251.1478)"/><path class="cls-1" d="M783.764,349.0377c1.5173.87,2.9058,1.583,4.21,2.4263,11.0525,7.1446,17.6583,17.3491,20.118,30.1521,3.0678,15.968-1.4583,30.03-11.4231,42.56a65.0717,65.0717,0,0,1-14.623,13.7529,47.7,47.7,0,0,1-27.1051,8.2811q-40.3155.0233-80.631.0047c-1.6169,0-1.6213-.0056-1.6214-1.6811q-.0011-93.8295,0-187.6589c0-1.76.0038-1.7638,1.8088-1.7638,27.3169-.0008,54.6342-.0732,81.9507.0387a43.5231,43.5231,0,0,1,26.1712,8.8172c10.1048,7.4767,17.8185,16.8935,21.2181,29.1377,4.9772,17.9262,1.4582,34.2171-10.8931,48.2878-2.3663,2.6958-5.5088,4.7106-8.2978,7.0341C784.4083,348.6253,784.1356,348.7824,783.764,349.0377Zm-69.7956,40.2611q0,10.5538.001,21.1077c.0006,1.6574.0066,1.6629,1.6619,1.6632,10.1541.0019,20.309-.0773,30.462.0306A20.2955,20.2955,0,0,0,761.32,405.75c8.508-8.5,8.9928-22.7314,1.2209-31.51-4.4135-4.9855-9.7351-7.8061-16.5707-7.7194-10.1525.1287-20.3079.0536-30.4618.0067-1.2119-.0056-1.5738.33-1.5651,1.5447C713.9944,375.1468,713.9685,382.2229,713.9684,389.2988Zm0-78.081c0,6.9178.0169,13.8357-.0181,20.7534-.0054,1.043.3247,1.3789,1.3777,1.3757,10.5566-.0322,21.1134-.0054,31.67-.0294a14.4986,14.4986,0,0,0,7.8608-2.2367,23.4932,23.4932,0,0,0,8.0849-32.1085c-3.7476-6.3747-9.3748-9.8157-17.0078-9.74-10.0359.0988-20.0735.024-30.11.0244-1.8543,0-1.8569.0013-1.8572,1.8079Q713.9671,301.1409,713.9689,311.2178Z" transform="translate(-344.7592 -251.1478)"/><path class="cls-1" d="M614.608,350.6325q0-46.6124,0-93.2246c0-.4.0215-.801-.0012-1.2-.0424-.7452.2528-1.1411,1.0382-1.0947.239.0141.48-.0026.72-.0026q18.477,0,36.9539,0c1.6561,0,1.6621.0043,1.6622,1.6508q.0015,93.8845,0,187.7692c0,1.6811-.006,1.684-1.7541,1.6841q-18.417.0012-36.834,0c-1.7811,0-1.7843-.0028-1.7844-1.7584Q614.6076,397.5448,614.608,350.6325Z" transform="translate(-344.7592 -251.1478)"/><path class="cls-1" d="M642.268,468.4024a17.613,17.613,0,0,1,8.4972-5.9361A13.3661,13.3661,0,0,1,668.19,472.859a19.817,19.817,0,0,1,.2575,3.3387q.0269,17.8784.0107,35.7568c0,1.5921-.0044,1.6-1.5852,1.6036-2.56.0062-5.12-.04-7.6788.02-1.1073.026-1.4115-.3655-1.408-1.4568.0365-11.5189.0106-23.038.0343-34.5569a6.329,6.329,0,0,0-1.9379-4.8535,4.387,4.387,0,0,0-5.0414-1.1589,5.1278,5.1278,0,0,0-3.2879,4.3712,13.3993,13.3993,0,0,0-.0257,1.5586q-.0014,17.1585-.0015,34.3169c0,1.746-.0084,1.7553-1.7143,1.7593q-3.66.0089-7.3194,0c-1.742-.0032-1.7483-.0079-1.7486-1.7177-.0021-11.399.0221-22.7981-.0352-34.1967a9.05,9.05,0,0,0-.7818-3.68,4.6269,4.6269,0,0,0-4.9012-2.6968,5.7326,5.7326,0,0,0-4.14,4.6465c-.0548.5554-.0473,1.1183-.0475,1.6777q-.0036,16.9785-.0022,33.957c0,2.0089-.0022,2.01-2.0611,2.0109-2.44.001-4.88-.0393-7.319.0175-1.0788.0251-1.4345-.3123-1.4309-1.4342.0386-12.1988.015-24.3978.0271-36.5967a13.5847,13.5847,0,0,1,19.5195-12.47A17.1,17.1,0,0,1,642.268,468.4024Z" transform="translate(-344.7592 -251.1478)"/><path class="cls-1" d="M765.27,507.3209c-2.2293,2.2732-4.4512,4.5643-6.7255,6.8022-.1567.1542-.8147.0364-1.0524-.17a36.5682,36.5682,0,0,1-3.0341-2.8957c-.6741-.7382-1.1781-.7372-2.0246-.2208a26.0588,26.0588,0,0,1-28.79-1.2294c-14.1445-10.319-14.1491-31.2522-2.5521-41.6019a26.5268,26.5268,0,0,1,15.8958-6.7877c11.7883-1.009,23.6705,6.6075,27.3277,17.8635a26.6312,26.6312,0,0,1-2.5311,22.5067,1.4573,1.4573,0,0,0,.296,2.2059c1.067.9583,2.0057,2.06,2.9958,3.1034A2.3749,2.3749,0,0,1,765.27,507.3209ZM754.8778,488.82a16.9152,16.9152,0,0,0-2.8626-10.5923c-5.3812-7.7147-15.8046-9.3215-22.6162-3.5932-7.9521,6.6874-7.3717,18.8991-1.0565,25.1737,5.6129,5.5769,14.1789,6.2987,20.1457,1.4156C752.7631,497.7248,754.89,493.1292,754.8778,488.82Z" transform="translate(-344.7592 -251.1478)"/><path class="cls-1" d="M998.6989,487.4843c.5245,14.59-12.6175,27.12-26.4807,26.9415A26.4749,26.4749,0,0,1,945.78,487.6749a26.0993,26.0993,0,0,1,26.3665-26.5829C986.5713,461.0191,999.2329,473.3377,998.6989,487.4843Zm-42.1018.9561a16.174,16.174,0,0,0,2.9334,8.9158c4.6591,6.8968,13.4334,9.14,20.3546,4.7945,6.0807-3.8181,8.6884-9.5846,7.9564-16.7887a16.0659,16.0659,0,0,0-18.97-13.8126C961.6506,473.1208,956.64,479.5937,956.5971,488.44Z" transform="translate(-344.7592 -251.1478)"/><path class="cls-1" d="M905.5117,488.1631c0-7.5175.0368-15.0353-.0337-22.5521a2.0459,2.0459,0,0,1,1.7433-2.3334c9.2418-2.8691,17.906-1.8944,25.6832,4.0482a25.32,25.32,0,0,1,10.3867,19.5533c.8413,15.3435-9.9415,25.484-22.5546,27.2807a28.6923,28.6923,0,0,1-13.832-1.118,1.7656,1.7656,0,0,1-1.4186-1.9667C905.5352,503.4381,905.5118,495.8005,905.5117,488.1631Zm10.8161-.0048c0,4.7561.0157,9.5122-.0142,14.2681-.0056.8728.2293,1.1849,1.1614,1.1391,8.0736-.397,16.6262-8.561,14.2292-18.6315-1.3125-5.5147-7.2152-11.4164-13.8558-11.9612-1.4826-.1216-1.5176-.1731-1.5193,1.2771Q916.321,481.2041,916.3278,488.1583Z" transform="translate(-344.7592 -251.1478)"/><path class="cls-1" d="M709.2587,495.0309c0,5.719-.0244,11.4381.0221,17.1567.0086,1.0534-.3229,1.406-1.3613,1.3874-2.7186-.0489-5.4391-.0446-8.1579-.0024-1.0162.0157-1.4-.3115-1.39-1.38.0468-5.0386-.0046-10.0781.04-15.1168.0094-1.0742-.2805-1.4571-1.4135-1.4381q-5.9373.099-11.877.0016c-1.081-.0166-1.3517.3432-1.3423,1.374.0456,4.9987-.0184,9.9985.0476,14.9967.0164,1.2379-.4056,1.5959-1.58,1.5684-2.5981-.061-5.1991-.0494-7.7979-.0044-1.0411.0181-1.4894-.2712-1.4857-1.417.0355-11.0379-.0385-22.0763.04-33.1137.0708-9.9962,7.393-17.1752,17.4019-17.2653,6.124-.0552,11.4106,1.813,15.3738,6.679a15.37,15.37,0,0,1,3.4358,9.658c.097,5.6372.0258,11.2773.0258,16.9162Zm-18.2271-8.2659c2.0759,0,4.1519-.0165,6.2274.0083.8052.01,1.1512-.2924,1.14-1.1254-.0333-2.4746.0385-4.9515-.0341-7.4244a7.0031,7.0031,0,0,0-7.3728-7.1415,7.2182,7.2182,0,0,0-7.1819,7.2667c-.0452,2.3944.0235,4.7909-.0268,7.1851-.02.9521.3444,1.2645,1.26,1.2456C687.0391,486.7381,689.0356,486.7666,691.0316,486.765Z" transform="translate(-344.7592 -251.1478)"/><path class="cls-1" d="M901.0187,494.9093c0,5.759-.0241,11.5182.022,17.2768.0084,1.0515-.3194,1.4077-1.36,1.389-2.7186-.0491-5.4391-.0443-8.158-.0026-1.0143.0156-1.4017-.3087-1.3917-1.379.0469-5.0387-.0045-10.0783.04-15.117.0094-1.0727-.2778-1.4583-1.4125-1.4392q-5.9373.1-11.8771.0018c-1.08-.0166-1.3526.3412-1.3432,1.3731.0457,4.9987-.0184,9.9986.0475,14.9968.0164,1.2373-.4045,1.5967-1.58,1.569-2.598-.0611-5.1991-.0493-7.7979-.0043-1.041.0181-1.4894-.2714-1.4857-1.4171.0355-10.958-.08-21.9172.0482-32.8738.1456-12.4446,9.8222-18.4667,20.2739-17.3724a17.4141,17.4141,0,0,1,13.4038,7.8173,15.5481,15.5481,0,0,1,2.55,8.6247c.0489,5.5186.0138,11.0379.0138,16.5569Zm-18.2468-8.1428c2.0361,0,4.0728-.0261,6.1082.012.8995.0169,1.3037-.268,1.285-1.2316-.0473-2.4346.0936-4.878-.067-7.3029a9.3946,9.3946,0,0,0-1.0306-3.7509,7.17,7.17,0,0,0-8.19-3.2382,7.4855,7.4855,0,0,0-5.2971,6.9528c-.0679,2.4735.0115,4.9508-.0349,7.4252-.0176.9373.4179,1.1538,1.2376,1.1423C878.7792,486.7473,880.7757,486.7661,882.7719,486.7665Z" transform="translate(-344.7592 -251.1478)"/><path class="cls-1" d="M834.9668,495.122c0,5.6388-.0248,11.2779.02,16.9164.009,1.13-.3268,1.5682-1.4945,1.54-2.678-.0635-5.3588-.0466-8.0377-.0081-.9744.0139-1.3212-.3292-1.3188-1.3255.0269-11.3176-.0436-22.6358.0386-33.9529.06-8.197,6.6534-15.2159,15.0107-16.284,4.4058-.5631,8.6615-.1611,12.5442,2.088,5.9842,3.4665,8.6528,8.8744,8.6692,15.67.0263,10.7977-.0074,21.5956.029,32.3933.0039,1.1566-.4658,1.4292-1.4959,1.4132-2.6389-.0408-5.28-.0557-7.9177.0067-1.1331.0268-1.5083-.3217-1.5033-1.4976.0432-10.2777.03-20.5557.0177-30.8336-.0013-1.1167-.0607-2.2373-.1656-3.3493a7.6187,7.6187,0,0,0-7.6051-6.73,7.5288,7.5288,0,0,0-6.7868,7.3965C834.9573,484.0842,834.9673,489.6031,834.9668,495.122Z" transform="translate(-344.7592 -251.1478)"/><path class="cls-1" d="M779.0467,481.3344c0,5.48.1479,10.9653-.049,16.4382-.1418,3.9391,3.8276,7.2065,7.3346,7.2183A6.9766,6.9766,0,0,0,793.63,498.01c.0737-3.4785.0179-6.96.0182-10.44.0006-7.76.0243-15.52-.0244-23.28-.0076-1.2155.36-1.6073,1.57-1.5723,2.6378.0762,5.28.056,7.919.0072.9853-.0182,1.3358.3271,1.3338,1.3129q-.0339,16.44-.0173,32.88c-.0025,11.8657-11.2666,18.6349-20.3061,17.52-7.92-.9768-14.0387-6.1747-15.526-13.5172a17.0935,17.0935,0,0,1-.3507-3.3305q-.038-16.56-.0144-33.12c0-1.723.0048-1.7266,1.7318-1.7286,2.6-.003,5.2008.0358,7.8-.0183,1.0129-.021,1.3029.3646,1.2978,1.3311C779.0307,469.8144,779.0463,475.5744,779.0467,481.3344Z" transform="translate(-344.7592 -251.1478)"/><path class="cls-1" d="M1022.4483,472.5046a30.3029,30.3029,0,0,0-4.3521.3624c-2.9945.6922-4.4125,2.8934-3.6055,5.8343,1.1414,4.1591,2.53,8.25,3.8063,12.3725.8506,2.7462,1.904,5.4509,2.4911,8.2529,1.2756,6.0877-1.6425,11.2995-7.43,13.5463a21.3175,21.3175,0,0,1-11.0842,1.0812c-.874-.1323-1.2384-.4927-1.2238-1.4.0412-2.5593.0235-5.12.01-7.68-.0042-.7932.1776-1.1087,1.1213-.9929a12.15,12.15,0,0,0,3.809-.0334c2.8462-.5714,4.1373-3.06,3.2394-6.2711-.8069-2.8853-1.8111-5.7156-2.7391-8.5666-.99-3.0412-2-6.0757-2.9871-9.1178-1.4384-4.4338-1.0539-8.5926,2.2691-12.07a16.9374,16.9374,0,0,1,10.4922-5.0685,35.111,35.111,0,0,1,5.2477-.0832,1.2471,1.2471,0,0,1,.8949.8222C1022.4739,466.5238,1022.4483,469.5564,1022.4483,472.5046Z" transform="translate(-344.7592 -251.1478)"/><path class="cls-1" d="M808.7919,488.16q0-11.88.0009-23.7592c0-1.6524.0066-1.6567,1.6807-1.6591,2.6-.0036,5.2.0291,7.8-.0163.9524-.0166,1.3506.2529,1.3491,1.2784q-.0354,24.1192-.0018,48.2384c.0013.9933-.36,1.3414-1.332,1.3281-2.7194-.0373-5.44-.0444-8.1593.0029-1.0552.0184-1.3606-.3833-1.3561-1.414C808.8076,504.16,808.792,496.16,808.7919,488.16Z" transform="translate(-344.7592 -251.1478)"/><path class="cls-1" d="M412.1182,479.6024c-.299-.4541-.5543-.8025-.7693-1.1742-3.0831-5.3287-6.14-10.6728-9.2606-15.9794-.5-.8511-.3786-1.2667.3853-1.8329a26.4368,26.4368,0,0,0,10.8952-17.6838c2.7556-17.4875-9.4546-30.6311-23.3446-32.4255a27.4407,27.4407,0,0,0-15.2345,2.1088c-.7051.3228-1.1764.4082-1.645-.4138-3.1482-5.5226-6.3445-11.0178-9.52-16.5251a9.1253,9.1253,0,0,1-.382-.8934c.66-.3445,1.2727-.6976,1.9122-.993a47.0145,47.0145,0,0,1,17.9216-4.3782,50.9246,50.9246,0,0,1,11.3125.9143c1.0986.2,1.3973-.1215,1.4169-1.1962.0765-4.1934.0835-8.396.3868-12.5755a73.123,73.123,0,0,1,7.3237-26.6493,75.4983,75.4983,0,0,1,31.8185-34.0681c.34-.1893.6638-.407,1.0948-.673-.6066-.85-1.1421-1.6352-1.7116-2.3946a48.0733,48.0733,0,0,1-9.8112-26.8508c-.0451-.8506.1556-1.1435,1.0105-1.1448,6.6367-.01,13.2733-.0538,19.91-.0762.632-.0021,1.267-.0644,1.3323.9253.444,6.7345,3.3539,12.2926,8.0238,17.0834,10.17,10.4331,26.9671,10.5557,36.92,2.1455,5.8588-4.9506,9.5944-11.0742,10.4331-18.7969.1134-1.0451.54-1.4016,1.5957-1.3941,5.7191.0408,11.4386.0142,17.158.0174,1.7681.001,1.7715.09,1.6369,1.8534a48.1212,48.1212,0,0,1-10.519,26.8292c-.4179.5266-.7757,1.1007-1.1775,1.6758,28.8793,16.957,41.8372,42.4236,40.8216,75.6035,11.9668-2.597,23.5256-1.3989,34.5846,4.42-.215.4391-.35.7649-.5259,1.0662q-5.1165,8.748-10.2454,17.4887c-1.0306,1.7527-.7238,1.5237-2.4407.8064-14.4045-6.0183-31.1622.8232-36.82,15.2736-4.1375,10.5671-2.2546,24.835,9.4927,32.8614.8917.6092.9789,1.0842.426,2.0073-2.7936,4.6639-5.5155,9.3709-8.2666,14.06-.2365.4031-.5026.7887-.8274,1.2954-11.2385-7.1507-18.1841-17.1916-21.4174-30.2525a77.824,77.824,0,0,1-83.2235.6252C429.3667,462.6186,422.8114,472.5206,412.1182,479.6024Zm62.7238-38.5189c30.1228.6822,57.0039-24.5918,57.2409-56.5622.2369-31.9458-26.4962-57.6745-57.0579-57.7021-32.1919-.029-56.5393,26.7027-57.273,55.5931C416.9194,415.1991,443.6981,441.7369,474.842,441.0835Z" transform="translate(-344.7592 -251.1478)"/><path class="cls-1" d="M384.747,454.8688a15.9355,15.9355,0,0,1-15.929-16.0513,16.0037,16.0037,0,1,1,32.0061.2372C400.8079,448.106,392.7376,455.266,384.747,454.8688Z" transform="translate(-344.7592 -251.1478)"/><path class="cls-1" d="M562.6384,424.9141c9.3925.2155,16.07,7.326,15.8194,16.8447-.2214,8.4055-7.694,15.3642-16.2134,15.1864a15.9417,15.9417,0,0,1-15.5355-16.2409A15.7818,15.7818,0,0,1,562.6384,424.9141Z" transform="translate(-344.7592 -251.1478)"/><path class="cls-1" d="M490.83,281.6141a15.9729,15.9729,0,1,1-31.9457.048,15.9729,15.9729,0,0,1,31.9457-.048Z" transform="translate(-344.7592 -251.1478)"/><path class="cls-1" d="M421.3786,384c-.439-28.52,23.9347-53.2127,53.2709-53.3448,28.8182-.13,53.5805,24.0724,53.6061,53.3412.0262,29.9553-25.1871,53.8787-54.3256,53.3892C445.5468,436.9091,420.9392,413.3069,421.3786,384Z" transform="translate(-344.7592 -251.1478)"/></svg>